<svg xmlns="http://www.w3.org/2000/svg" width="16" height="16" viewBox="0 0 16 16">
  <g transform="matrix(0.8219,0,0,0.8219,3.7434,1.4785)">
    <ellipse cx="10.9564" cy="-1.3115" rx="1.5817" ry="1.9361" transform="matrix(0.8775,0.4795,-0.2938,0.9559,0,0)" fill="#3b82f6"/>
    <ellipse cx="14.9331" cy="0.3553" rx="1.5817" ry="1.9361" transform="matrix(0.8775,0.4795,-0.2938,0.9559,0,0)" fill="#3b82f6"/>
    <ellipse cx="5.1762" cy="5.2497" rx="1.5817" ry="1.9361" transform="matrix(0.8775,0.4795,-0.2938,0.9559,0,0)" fill="#3b82f6"/>
    <ellipse cx="7.0537" cy="0.6463" rx="1.5817" ry="1.9361" transform="matrix(0.8775,0.4795,-0.2938,0.9559,0,0)" fill="#3b82f6"/>
    <path d="m 6,8.3351 c 1.3386,-1.4975 2.6613,-1.4974 4,0 l 2,2.2373 C 13.9446,12.7471 11.1701,15.7345 9.2,14.1658 8.4919,13.602 7.5068,13.6006 6.8,14.1632 4.831,15.7304 2.0571,12.7459 4,10.5724 Z" fill="#3b82f6"/>
  </g>
</svg>
